{
	"asset":{
		"generator":"Khronos glTF Blender I/O v4.3.47",
		"version":"2.0"
	},
	"extensionsUsed":[
		"KHR_lights_punctual",
		"KHR_materials_emissive_strength",
		"KHR_materials_specular"
	],
	"extensionsRequired":[
		"KHR_lights_punctual"
	],
	"extensions":{
		"KHR_lights_punctual":{
			"lights":[
				{
					"color":[
						1,
						1,
						1
					],
					"intensity":217.40565226352905,
					"type":"point",
					"name":"Light"
				}
			]
		}
	},
	"scene":0,
	"scenes":[
		{
			"name":"Scene",
			"nodes":[
				0,
				1,
				2,
				3,
				4,
				5,
				6,
				7,
				8
			]
		}
	],
	"nodes":[
		{
			"extensions":{
				"KHR_lights_punctual":{
					"light":0
				}
			},
			"name":"Light",
			"rotation":[
				-0.28416627645492554,
				0.7269423007965088,
				0.34203392267227173,
				0.5232754945755005
			],
			"translation":[
				-3.0220561027526855,
				2.6688640117645264,
				-1.0123103857040405
			]
		},
		{
			"mesh":0,
			"name":"Paredes ",
			"scale":[
				1,
				1.036538004875183,
				1
			]
		},
		{
			"mesh":1,
			"name":"Columnas ",
			"scale":[
				0.8939250111579895,
				0.8939250111579895,
				0.8939250111579895
			],
			"translation":[
				0.5640912652015686,
				0.18526291847229004,
				1.8695675134658813
			]
		},
		{
			"mesh":2,
			"name":"Soportes techo",
			"scale":[
				2.3294684886932373,
				1.9286353588104248,
				1.991532564163208
			],
			"translation":[
				-1.6223945617675781,
				3.8262202739715576,
				0
			]
		},
		{
			"mesh":3,
			"name":"Paneles de madera",
			"rotation":[
				0,
				-0.7071068286895752,
				0.7071068286895752,
				1.1520233300643667e-07
			],
			"translation":[
				-5.514873504638672,
				1.005683183670044,
				1.8581137657165527
			]
		},
		{
			"mesh":4,
			"name":"Alfombra ",
			"scale":[
				4.3151726722717285,
				1,
				1
			],
			"translation":[
				-3.279857635498047,
				0.00014340505003929138,
				0
			]
		},
		{
			"mesh":5,
			"name":"L\u00e1mpara 1",
			"rotation":[
				0,
				-0.7071068286895752,
				0,
				0.7071068286895752
			],
			"scale":[
				0.2564222514629364,
				0.2564222514629364,
				0.2564222514629364
			],
			"translation":[
				-3.6949541568756104,
				2.9556360244750977,
				-1.5705519914627075
			]
		},
		{
			"mesh":6,
			"name":"Paredes .001",
			"scale":[
				1,
				1.036538004875183,
				1
			]
		},
		{
			"mesh":7,
			"name":"Paredes .002",
			"scale":[
				1,
				1.036538004875183,
				1
			]
		}
	],
	"materials":[
		{
			"doubleSided":true,
			"name":"tapiz",
			"normalTexture":{
				"index":0
			},
			"pbrMetallicRoughness":{
				"baseColorTexture":{
					"index":1
				},
				"metallicFactor":0,
				"metallicRoughnessTexture":{
					"index":2
				}
			}
		},
		{
			"doubleSided":true,
			"name":"Material.005",
			"normalTexture":{
				"index":3
			},
			"pbrMetallicRoughness":{
				"baseColorTexture":{
					"index":4
				},
				"metallicFactor":0,
				"metallicRoughnessTexture":{
					"index":5
				}
			}
		},
		{
			"doubleSided":true,
			"name":"Material.003",
			"pbrMetallicRoughness":{
				"baseColorFactor":[
					0.24312087893486023,
					0.02497873455286026,
					0.03844880685210228,
					1
				],
				"metallicFactor":0,
				"roughnessFactor":0.5
			}
		},
		{
			"doubleSided":true,
			"name":"Material.001",
			"pbrMetallicRoughness":{
				"baseColorFactor":[
					0.800000011920929,
					0.800000011920929,
					0.800000011920929,
					1
				],
				"metallicFactor":0,
				"roughnessFactor":0.5
			}
		},
		{
			"doubleSided":true,
			"name":"Material",
			"pbrMetallicRoughness":{
				"baseColorFactor":[
					0.010497191920876503,
					0.007362343370914459,
					0.03444372117519379,
					1
				],
				"roughnessFactor":0.3507462739944458
			}
		},
		{
			"doubleSided":true,
			"emissiveFactor":[
				1,
				0.5585730882002653,
				0.03523754982476426
			],
			"extensions":{
				"KHR_materials_emissive_strength":{
					"emissiveStrength":489.2060160636902
				},
				"KHR_materials_specular":{
					"specularColorFactor":[
						1.0075187683105469,
						1.0075187683105469,
						1.0075187683105469
					]
				}
			},
			"name":"Material.006",
			"pbrMetallicRoughness":{
				"baseColorFactor":[
					1,
					0.9824185371398926,
					0.9307301044464111,
					1
				],
				"metallicFactor":0,
				"roughnessFactor":0.5
			}
		},
		{
			"doubleSided":true,
			"name":"Material.004",
			"pbrMetallicRoughness":{
				"baseColorFactor":[
					0.17463061213493347,
					0.044601112604141235,
					0.007609514053910971,
					1
				],
				"metallicFactor":0,
				"roughnessFactor":0.5
			}
		},
		{
			"doubleSided":true,
			"name":"Material.007",
			"pbrMetallicRoughness":{
				"baseColorFactor":[
					0.40498778223991394,
					0.2224142849445343,
					0.1411755383014679,
					1
				],
				"roughnessFactor":0.36567163467407227
			}
		},
		{
			"doubleSided":true,
			"name":"Material.002",
			"pbrMetallicRoughness":{
				"baseColorFactor":[
					0.05323715880513191,
					0.004246065858751535,
					0.01181754283607006,
					1
				],
				"metallicFactor":0,
				"roughnessFactor":0.800000011920929
			}
		}
	],
	"meshes":[
		{
			"name":"Plane",
			"primitives":[
				{
					"attributes":{
						"POSITION":0,
						"NORMAL":1,
						"TEXCOORD_0":2
					},
					"indices":3,
					"material":0
				}
			]
		},
		{
			"name":"Cube.002",
			"primitives":[
				{
					"attributes":{
						"POSITION":4,
						"NORMAL":5,
						"TEXCOORD_0":6
					},
					"indices":7,
					"material":1
				}
			]
		},
		{
			"name":"Plane.002",
			"primitives":[
				{
					"attributes":{
						"POSITION":8,
						"NORMAL":9,
						"TEXCOORD_0":10
					},
					"indices":11,
					"material":1
				}
			]
		},
		{
			"name":"Plane.003",
			"primitives":[
				{
					"attributes":{
						"POSITION":12,
						"NORMAL":13,
						"TEXCOORD_0":14
					},
					"indices":15,
					"material":1
				}
			]
		},
		{
			"name":"Plane.004",
			"primitives":[
				{
					"attributes":{
						"POSITION":16,
						"NORMAL":17,
						"TEXCOORD_0":18
					},
					"indices":19,
					"material":2
				},
				{
					"attributes":{
						"POSITION":20,
						"NORMAL":21,
						"TEXCOORD_0":22
					},
					"indices":23,
					"material":3
				}
			]
		},
		{
			"name":"Cube.004",
			"primitives":[
				{
					"attributes":{
						"POSITION":24,
						"NORMAL":25,
						"TEXCOORD_0":26
					},
					"indices":27,
					"material":4
				},
				{
					"attributes":{
						"POSITION":28,
						"NORMAL":29,
						"TEXCOORD_0":30
					},
					"indices":31,
					"material":5
				},
				{
					"attributes":{
						"POSITION":32,
						"NORMAL":33,
						"TEXCOORD_0":34
					},
					"indices":35,
					"material":6
				},
				{
					"attributes":{
						"POSITION":36,
						"NORMAL":37,
						"TEXCOORD_0":38
					},
					"indices":39,
					"material":7
				}
			]
		},
		{
			"name":"Plane.001",
			"primitives":[
				{
					"attributes":{
						"POSITION":40,
						"NORMAL":41,
						"TEXCOORD_0":42
					},
					"indices":43,
					"material":0
				},
				{
					"attributes":{
						"POSITION":44,
						"NORMAL":45,
						"TEXCOORD_0":46
					},
					"indices":47,
					"material":8
				}
			]
		},
		{
			"name":"Plane.005",
			"primitives":[
				{
					"attributes":{
						"POSITION":48,
						"NORMAL":49,
						"TEXCOORD_0":50
					},
					"indices":51,
					"material":8
				},
				{
					"attributes":{
						"POSITION":52,
						"NORMAL":53,
						"TEXCOORD_0":54
					},
					"indices":55
				}
			]
		}
	],
	"textures":[
		{
			"sampler":0,
			"source":0
		},
		{
			"sampler":0,
			"source":0
		},
		{
			"sampler":0,
			"source":0
		},
		{
			"sampler":0,
			"source":1
		},
		{
			"sampler":0,
			"source":1
		},
		{
			"sampler":0,
			"source":1
		}
	],
	"images":[
		{
			"mimeType":"image/jpeg",
			"name":"tapiz.jpg",
			"uri":"../../../pasillo/tapiz.jpg"
		},
		{
			"mimeType":"image/jpeg",
			"name":"madera.jpg",
			"uri":"../../../pasillo/madera.jpg"
		}
	],
	"accessors":[
		{
			"bufferView":0,
			"componentType":5126,
			"count":48,
			"max":[
				1,
				3.9893617630004883,
				2.0884311199188232
			],
			"min":[
				-7.523447036743164,
				-0.09192387014627457,
				-2.0884311199188232
			],
			"type":"VEC3"
		},
		{
			"bufferView":1,
			"componentType":5126,
			"count":48,
			"type":"VEC3"
		},
		{
			"bufferView":2,
			"componentType":5126,
			"count":48,
			"type":"VEC2"
		},
		{
			"bufferView":3,
			"componentType":5123,
			"count":72,
			"type":"SCALAR"
		},
		{
			"bufferView":4,
			"componentType":5126,
			"count":1156,
			"max":[
				0.25676989555358887,
				4.057991027832031,
				0.23463717103004456
			],
			"min":[
				-5.0321784019470215,
				-0.21135565638542175,
				-0.4682670831680298
			],
			"type":"VEC3"
		},
		{
			"bufferView":5,
			"componentType":5126,
			"count":1156,
			"type":"VEC3"
		},
		{
			"bufferView":6,
			"componentType":5126,
			"count":1156,
			"type":"VEC2"
		},
		{
			"bufferView":7,
			"componentType":5123,
			"count":2088,
			"type":"SCALAR"
		},
		{
			"bufferView":8,
			"componentType":5126,
			"count":96,
			"max":[
				1,
				0.09970717877149582,
				1
			],
			"min":[
				-3.0199997425079346,
				0,
				-1
			],
			"type":"VEC3"
		},
		{
			"bufferView":9,
			"componentType":5126,
			"count":96,
			"type":"VEC3"
		},
		{
			"bufferView":10,
			"componentType":5126,
			"count":96,
			"type":"VEC2"
		},
		{
			"bufferView":11,
			"componentType":5123,
			"count":192,
			"type":"SCALAR"
		},
		{
			"bufferView":12,
			"componentType":5126,
			"count":6032,
			"max":[
				2.07784366607666,
				3.855896234512329,
				1
			],
			"min":[
				-5.819809436798096,
				-0.13966985046863556,
				-2.171302318572998
			],
			"type":"VEC3"
		},
		{
			"bufferView":13,
			"componentType":5126,
			"count":6032,
			"type":"VEC3"
		},
		{
			"bufferView":14,
			"componentType":5126,
			"count":6032,
			"type":"VEC2"
		},
		{
			"bufferView":15,
			"componentType":5123,
			"count":13536,
			"type":"SCALAR"
		},
		{
			"bufferView":16,
			"componentType":5126,
			"count":36,
			"max":[
				1,
				0.04168233647942543,
				1
			],
			"min":[
				-1,
				0,
				-1
			],
			"type":"VEC3"
		},
		{
			"bufferView":17,
			"componentType":5126,
			"count":36,
			"type":"VEC3"
		},
		{
			"bufferView":18,
			"componentType":5126,
			"count":36,
			"type":"VEC2"
		},
		{
			"bufferView":19,
			"componentType":5123,
			"count":72,
			"type":"SCALAR"
		},
		{
			"bufferView":20,
			"componentType":5126,
			"count":8,
			"max":[
				1,
				0.04168233647942543,
				1
			],
			"min":[
				-1,
				0.01872003637254238,
				-1
			],
			"type":"VEC3"
		},
		{
			"bufferView":21,
			"componentType":5126,
			"count":8,
			"type":"VEC3"
		},
		{
			"bufferView":22,
			"componentType":5126,
			"count":8,
			"type":"VEC2"
		},
		{
			"bufferView":23,
			"componentType":5123,
			"count":12,
			"type":"SCALAR"
		},
		{
			"bufferView":24,
			"componentType":5126,
			"count":2929,
			"max":[
				0.673429548740387,
				0.5880389213562012,
				0.5878463983535767
			],
			"min":[
				-0.6463739275932312,
				-1.849302887916565,
				-0.5887140035629272
			],
			"type":"VEC3"
		},
		{
			"bufferView":25,
			"componentType":5126,
			"count":2929,
			"type":"VEC3"
		},
		{
			"bufferView":26,
			"componentType":5126,
			"count":2929,
			"type":"VEC2"
		},
		{
			"bufferView":27,
			"componentType":5123,
			"count":9012,
			"type":"SCALAR"
		},
		{
			"bufferView":28,
			"componentType":5126,
			"count":12,
			"max":[
				0.5415921211242676,
				-0.49187660217285156,
				0.4051508903503418
			],
			"min":[
				-0.20557081699371338,
				-1.466454029083252,
				-0.4046003818511963
			],
			"type":"VEC3"
		},
		{
			"bufferView":29,
			"componentType":5126,
			"count":12,
			"type":"VEC3"
		},
		{
			"bufferView":30,
			"componentType":5126,
			"count":12,
			"type":"VEC2"
		},
		{
			"bufferView":31,
			"componentType":5123,
			"count":18,
			"type":"SCALAR"
		},
		{
			"bufferView":32,
			"componentType":5126,
			"count":96,
			"max":[
				0.4849475920200348,
				0.15919816493988037,
				0.126164510846138
			],
			"min":[
				-0.4462699890136719,
				-0.031064152717590332,
				-0.1270323544740677
			],
			"type":"VEC3"
		},
		{
			"bufferView":33,
			"componentType":5126,
			"count":96,
			"type":"VEC3"
		},
		{
			"bufferView":34,
			"componentType":5126,
			"count":96,
			"type":"VEC2"
		},
		{
			"bufferView":35,
			"componentType":5123,
			"count":144,
			"type":"SCALAR"
		},
		{
			"bufferView":36,
			"componentType":5126,
			"count":48,
			"max":[
				-0.46653875708580017,
				0.5880389213562012,
				0.5878463983535767
			],
			"min":[
				-0.6463739275932312,
				-0.4308922290802002,
				-0.5887140035629272
			],
			"type":"VEC3"
		},
		{
			"bufferView":37,
			"componentType":5126,
			"count":48,
			"type":"VEC3"
		},
		{
			"bufferView":38,
			"componentType":5126,
			"count":48,
			"type":"VEC2"
		},
		{
			"bufferView":39,
			"componentType":5123,
			"count":72,
			"type":"SCALAR"
		},
		{
			"bufferView":40,
			"componentType":5126,
			"count":72,
			"max":[
				1,
				0,
				2.0884311199188232
			],
			"min":[
				-7.595073223114014,
				-0.12999999523162842,
				-2.0884311199188232
			],
			"type":"VEC3"
		},
		{
			"bufferView":41,
			"componentType":5126,
			"count":72,
			"type":"VEC3"
		},
		{
			"bufferView":42,
			"componentType":5126,
			"count":72,
			"type":"VEC2"
		},
		{
			"bufferView":43,
			"componentType":5123,
			"count":108,
			"type":"SCALAR"
		},
		{
			"bufferView":44,
			"componentType":5126,
			"count":36,
			"max":[
				1,
				0,
				1.9965072870254517
			],
			"min":[
				-7.595073223114014,
				0,
				-1.9965072870254517
			],
			"type":"VEC3"
		},
		{
			"bufferView":45,
			"componentType":5126,
			"count":36,
			"type":"VEC3"
		},
		{
			"bufferView":46,
			"componentType":5126,
			"count":36,
			"type":"VEC2"
		},
		{
			"bufferView":47,
			"componentType":5123,
			"count":72,
			"type":"SCALAR"
		},
		{
			"bufferView":48,
			"componentType":5126,
			"count":4,
			"max":[
				1,
				3.87839937210083,
				1.9965072870254517
			],
			"min":[
				-0.43251216411590576,
				3.87839937210083,
				0
			],
			"type":"VEC3"
		},
		{
			"bufferView":49,
			"componentType":5126,
			"count":4,
			"type":"VEC3"
		},
		{
			"bufferView":50,
			"componentType":5126,
			"count":4,
			"type":"VEC2"
		},
		{
			"bufferView":51,
			"componentType":5123,
			"count":6,
			"type":"SCALAR"
		},
		{
			"bufferView":52,
			"componentType":5126,
			"count":8,
			"max":[
				1,
				3.9893617630004883,
				2.088430881500244
			],
			"min":[
				-0.43251240253448486,
				3.87839937210083,
				0
			],
			"type":"VEC3"
		},
		{
			"bufferView":53,
			"componentType":5126,
			"count":8,
			"type":"VEC3"
		},
		{
			"bufferView":54,
			"componentType":5126,
			"count":8,
			"type":"VEC2"
		},
		{
			"bufferView":55,
			"componentType":5123,
			"count":12,
			"type":"SCALAR"
		}
	],
	"bufferViews":[
		{
			"buffer":0,
			"byteLength":576,
			"byteOffset":0,
			"target":34962
		},
		{
			"buffer":0,
			"byteLength":576,
			"byteOffset":576,
			"target":34962
		},
		{
			"buffer":0,
			"byteLength":384,
			"byteOffset":1152,
			"target":34962
		},
		{
			"buffer":0,
			"byteLength":144,
			"byteOffset":1536,
			"target":34963
		},
		{
			"buffer":0,
			"byteLength":13872,
			"byteOffset":1680,
			"target":34962
		},
		{
			"buffer":0,
			"byteLength":13872,
			"byteOffset":15552,
			"target":34962
		},
		{
			"buffer":0,
			"byteLength":9248,
			"byteOffset":29424,
			"target":34962
		},
		{
			"buffer":0,
			"byteLength":4176,
			"byteOffset":38672,
			"target":34963
		},
		{
			"buffer":0,
			"byteLength":1152,
			"byteOffset":42848,
			"target":34962
		},
		{
			"buffer":0,
			"byteLength":1152,
			"byteOffset":44000,
			"target":34962
		},
		{
			"buffer":0,
			"byteLength":768,
			"byteOffset":45152,
			"target":34962
		},
		{
			"buffer":0,
			"byteLength":384,
			"byteOffset":45920,
			"target":34963
		},
		{
			"buffer":0,
			"byteLength":72384,
			"byteOffset":46304,
			"target":34962
		},
		{
			"buffer":0,
			"byteLength":72384,
			"byteOffset":118688,
			"target":34962
		},
		{
			"buffer":0,
			"byteLength":48256,
			"byteOffset":191072,
			"target":34962
		},
		{
			"buffer":0,
			"byteLength":27072,
			"byteOffset":239328,
			"target":34963
		},
		{
			"buffer":0,
			"byteLength":432,
			"byteOffset":266400,
			"target":34962
		},
		{
			"buffer":0,
			"byteLength":432,
			"byteOffset":266832,
			"target":34962
		},
		{
			"buffer":0,
			"byteLength":288,
			"byteOffset":267264,
			"target":34962
		},
		{
			"buffer":0,
			"byteLength":144,
			"byteOffset":267552,
			"target":34963
		},
		{
			"buffer":0,
			"byteLength":96,
			"byteOffset":267696,
			"target":34962
		},
		{
			"buffer":0,
			"byteLength":96,
			"byteOffset":267792,
			"target":34962
		},
		{
			"buffer":0,
			"byteLength":64,
			"byteOffset":267888,
			"target":34962
		},
		{
			"buffer":0,
			"byteLength":24,
			"byteOffset":267952,
			"target":34963
		},
		{
			"buffer":0,
			"byteLength":35148,
			"byteOffset":267976,
			"target":34962
		},
		{
			"buffer":0,
			"byteLength":35148,
			"byteOffset":303124,
			"target":34962
		},
		{
			"buffer":0,
			"byteLength":23432,
			"byteOffset":338272,
			"target":34962
		},
		{
			"buffer":0,
			"byteLength":18024,
			"byteOffset":361704,
			"target":34963
		},
		{
			"buffer":0,
			"byteLength":144,
			"byteOffset":379728,
			"target":34962
		},
		{
			"buffer":0,
			"byteLength":144,
			"byteOffset":379872,
			"target":34962
		},
		{
			"buffer":0,
			"byteLength":96,
			"byteOffset":380016,
			"target":34962
		},
		{
			"buffer":0,
			"byteLength":36,
			"byteOffset":380112,
			"target":34963
		},
		{
			"buffer":0,
			"byteLength":1152,
			"byteOffset":380148,
			"target":34962
		},
		{
			"buffer":0,
			"byteLength":1152,
			"byteOffset":381300,
			"target":34962
		},
		{
			"buffer":0,
			"byteLength":768,
			"byteOffset":382452,
			"target":34962
		},
		{
			"buffer":0,
			"byteLength":288,
			"byteOffset":383220,
			"target":34963
		},
		{
			"buffer":0,
			"byteLength":576,
			"byteOffset":383508,
			"target":34962
		},
		{
			"buffer":0,
			"byteLength":576,
			"byteOffset":384084,
			"target":34962
		},
		{
			"buffer":0,
			"byteLength":384,
			"byteOffset":384660,
			"target":34962
		},
		{
			"buffer":0,
			"byteLength":144,
			"byteOffset":385044,
			"target":34963
		},
		{
			"buffer":0,
			"byteLength":864,
			"byteOffset":385188,
			"target":34962
		},
		{
			"buffer":0,
			"byteLength":864,
			"byteOffset":386052,
			"target":34962
		},
		{
			"buffer":0,
			"byteLength":576,
			"byteOffset":386916,
			"target":34962
		},
		{
			"buffer":0,
			"byteLength":216,
			"byteOffset":387492,
			"target":34963
		},
		{
			"buffer":0,
			"byteLength":432,
			"byteOffset":387708,
			"target":34962
		},
		{
			"buffer":0,
			"byteLength":432,
			"byteOffset":388140,
			"target":34962
		},
		{
			"buffer":0,
			"byteLength":288,
			"byteOffset":388572,
			"target":34962
		},
		{
			"buffer":0,
			"byteLength":144,
			"byteOffset":388860,
			"target":34963
		},
		{
			"buffer":0,
			"byteLength":48,
			"byteOffset":389004,
			"target":34962
		},
		{
			"buffer":0,
			"byteLength":48,
			"byteOffset":389052,
			"target":34962
		},
		{
			"buffer":0,
			"byteLength":32,
			"byteOffset":389100,
			"target":34962
		},
		{
			"buffer":0,
			"byteLength":12,
			"byteOffset":389132,
			"target":34963
		},
		{
			"buffer":0,
			"byteLength":96,
			"byteOffset":389144,
			"target":34962
		},
		{
			"buffer":0,
			"byteLength":96,
			"byteOffset":389240,
			"target":34962
		},
		{
			"buffer":0,
			"byteLength":64,
			"byteOffset":389336,
			"target":34962
		},
		{
			"buffer":0,
			"byteLength":24,
			"byteOffset":389400,
			"target":34963
		}
	],
	"samplers":[
		{
			"magFilter":9729,
			"minFilter":9987
		}
	],
	"buffers":[
		{
			"byteLength":389424,
			"uri":"Pasillo.bin"
		}
	]
}
