<?xml version="1.0" encoding="UTF-8"?>
<svg id="Capa_1" data-name="Capa 1" xmlns="http://www.w3.org/2000/svg" viewBox="0 0 282.65 223.12">
  <defs>
    <style>
      .cls-1 {
        fill: #fff;
      }
    </style>
  </defs>
  <path class="cls-1" d="M115.29,17.56c7.02,0,17.45,2.02,22.66,5.11v8.51h-.74c-3.62-7.02-11.17-12.13-21.92-12.13-32.99,0-34.05,77.89,0,77.89,10.75,0,18.3-5.11,21.92-12.13h.74v8.51c-5.21,3.09-15.64,5.11-22.66,5.11-55.97,0-54.37-80.87,0-80.87Z"/>
  <path class="cls-1" d="M224.68,58.42c0,24.05-17.66,40.01-41.39,40.01s-41.39-15.96-41.39-40.01c0-20.22,13.94-40.86,41.39-40.86s41.39,20.64,41.39,40.86ZM208.29,56.4c0-18.94-7.98-37.35-25.01-37.35s-25.01,18.41-25.01,37.35c0,14.58,5.85,40.54,25.01,40.54s25.01-25.96,25.01-40.54Z"/>
  <path class="cls-1" d="M228.62,35.86c0-13.83,15.96-18.3,27.03-18.3,5.11,0,12.02,2.02,17.24,5.11v8.51h-.74c-2.55-5-8.41-12.13-16.71-12.13s-12.77,5-12.77,10.96c0,20.22,36.6,25.86,36.6,49.59,0,10.64-11.39,18.83-28.09,18.83-12.56,0-18.73-4.89-22.56-8.3v-8.62h.74c1.81,3.19,7.55,15.43,21.81,15.43,6.7,0,13.41-2.98,13.41-10.32,0-20.43-35.97-27.24-35.97-50.76Z"/>
  <g>
    <path class="cls-1" d="M53.86,121.42c1.09.06,2.18.09,3.26.09,1.14,0,3.29-.09,6.4-.25,2.47-.13,5.34-.54,8.51-1.19-3.06-1.94-6.11-3.96-9.2-5.95-4,1.28-7.85,3.15-11.49,5.59.85.57,1.69,1.14,2.53,1.72Z"/>
    <path class="cls-1" d="M74.94,125.05c-4.09.93-8.57,1.56-13.3,1.89,11.68,8.35,23.51,16.28,39.08,16.28,19.79,0,32.35-12.66,35.86-25.01l-.21-.32c-4.68,7.55-17.45,14.9-28.41,15.11-10.84.16-20.21-3.7-29.27-8.9-1.2.33-2.44.64-3.74.94Z"/>
    <path class="cls-1" d="M33.04,110.24l.53.32v-.11c4.22,1.43,8.18,3.39,12.01,5.63,3.36-2.48,6.9-4.52,10.6-6.11-7.01-4.2-14.39-7.9-22.61-9.95v-37.14h15.32c14.37,0,13.62,4.47,15.22,7.56h1.49v-17.03h-1.49c-1.6,3.09-.85,7.55-15.22,7.55h-15.32V1.92h25.01c14.37,0,13.62,7.87,15.22,10.96h1.49V0H11.65v1.06c2.23,0,6.49,1.28,6.49,6.7v90.77C8.57,99.6-.8,108.54.05,118.75h.74c3.72-8.51,13.62-10.85,17.77-10.85,5.21,0,10,.85,14.47,2.34Z"/>
  </g>
  <g>
    <path class="cls-1" d="M144.23,111.73h8.68c17.57,0,18.05,24.02,0,24.02h-8.68v-.34c.72-.38,1.06-1.1,1.06-2.16v-19.01c0-1.06-.34-1.78-1.06-2.16v-.34ZM152.92,135.27c10.98,0,10.6-23.05,0-23.05h-2.64v23.05h2.64Z"/>
    <path class="cls-1" d="M167.87,135.4c.72,0,2.09-.41,2.09-2.16v-19.01c0-1.75-1.37-2.16-2.09-2.16v-.34h17.77v4.39h-.34c0-.72-.41-3.91-3.74-3.91h-6.62v13.07h3.91c3.33,0,3.5-1.72,3.88-2.44h.34v5.35h-.34c-.38-.72-.55-2.44-3.88-2.44h-3.91v9.5h6.62c3.33,0,3.74-3.19,3.74-3.91h.34v4.39h-17.77v-.34Z"/>
  </g>
  <g>
    <path class="cls-1" d="M206.06,112.07v-.34h9.16v.34c-.72,0-2.09.41-2.09,2.16v12.18c0,8.17,2.95,9.67,5.97,9.67,3.74,0,6.52-3.22,6.52-10.7v-11.15c0-1.75-1.37-2.16-2.09-2.16v-.34h4.67v.34c-.72,0-2.09.41-2.09,2.16v11.15c0,9.64-4.15,11.39-8.47,11.39-4.63,0-9.47-2.3-9.47-11.84v-10.7c0-1.75-1.37-2.16-2.09-2.16Z"/>
    <path class="cls-1" d="M231.71,114.24c0-1.75-1.37-2.16-2.09-2.16v-.34h4.97l12.83,16.06v-13.55c0-1.75-1.37-2.16-2.09-2.16v-.34h4.67v.34c-.72,0-2.09.41-2.09,2.16v21.51h-.82l-14.89-18.66v16.16c0,1.75,1.37,2.16,2.09,2.16v.34h-4.67v-.34c.72,0,2.09-.41,2.09-2.16v-19.01Z"/>
    <path class="cls-1" d="M249.21,135.75v-.34c.72,0,1.99-.48,2.64-2.16l8.17-21.51h.51v.03l8.13,21.48c.65,1.68,1.92,2.16,2.64,2.16v.34h-9.5v-.34c.72,0,2.2-.48,1.54-2.16l-2.13-5.59h-6.72l-2.13,5.59c-.65,1.68.82,2.16,1.54,2.16v.34h-4.7ZM254.66,127.17h6.38l-3.19-8.41-3.19,8.41Z"/>
  </g>
  <g>
    <path class="cls-1" d="M50.87,223.12c-3.8,0-7.49-.72-11.08-2.17-3.59-1.45-6.88-3.69-9.88-6.75-6.05-6.17-10.02-14.86-11.91-26.08-.49-3.16-.74-6.39-.74-9.7,0-4.56.64-10.15,1.91-16.77,1.27-6.62,4-13.81,8.17-21.55,3.41-6.11,7.6-11.58,12.56-16.42-.52-.1-1.28-.22-2.28-.36-4.35-.52-6.86-1.12-7.53-1.81l-.07-.18c-.1-.19-.16-.41-.16-.65,0-.1.02-.24.06-.39.04-.16.14-.33.31-.51s.44-.34.79-.46c.39-.22.95-.38,1.68-.47.19-.03.4-.05.6-.05.6,0,1.33.13,2.19.39.86.26,1.88.88,3.04,1.84,1.39.28,2.48.5,3.28.65,7.33-6.76,15.54-11.08,24.63-12.94,2.99-.58,6.4-.87,10.21-.87,5.45,0,9.82.57,13.09,1.7,2.34.82,3.68,1.96,4.02,3.42.03.15.04.3.04.45,0,1.61-1.82,3.31-5.47,5.1-3.47,1.76-8.08,3.3-13.83,4.62-4.57,1.04-9.56,1.71-14.97,1.99-1.33.08-2.67.11-4.02.11-4.13,0-8.34-.33-12.65-.98-5.14,4.84-9.47,10.44-12.98,16.78-4.05,7.55-6.87,15.42-8.45,23.6-.92,4.77-1.39,9.38-1.39,13.83,0,3.19.24,6.29.72,9.32,1.71,10.04,5.7,18.2,11.95,24.49,2.77,2.83,5.85,4.99,9.25,6.48,3.04,1.33,6.26,1.99,9.67,1.99l1.23-.02c6.49-.4,12.9-2.62,19.22-6.65,6.32-4.03,12.3-9.51,17.97-16.43,5.66-6.93,10.78-14.94,15.35-24.04.3-.48.61-.72.94-.72.03,0,.14.01.34.03.19.02.39.22.58.59.09.18.13.36.13.54,0,.22-.06.45-.18.69-5.87,10.86-11.93,19.81-18.17,26.85-6.24,7.04-12.47,12.31-18.68,15.81-6.73,3.8-13.24,5.7-19.51,5.7ZM57.12,123.44c1.18,0,3.34-.09,6.5-.26s6.84-.74,11.06-1.71c5.72-1.25,10.24-2.66,13.56-4.22l.38-.2c1.24-.63,2.23-1.21,2.99-1.77.67-.48,1.01-.98,1.01-1.5s-.41-1.06-1.23-1.56c-2.22-1.4-6.53-2.1-12.94-2.1-3.78,0-7.58.3-11.37.89-8.16,1.67-15.6,5.43-22.3,11.28,4.19.76,8.3,1.14,12.33,1.14Z"/>
    <path class="cls-1" d="M110.64,185.31c-.74,0-1.45-.22-2.12-.67-.57-.39-1.01-.86-1.34-1.43-.64-1.13-1.02-2.41-1.14-3.84-.15-1.24-.22-2.94-.22-5.12,0-1,.03-1.87.09-2.61-.22-.24-.34-.54-.34-.89,0-.48.2-1.06.6-1.74.36-.63.92-.94,1.68-.94.39,0,.77.11,1.16.32.39.22.59.58.6,1.08-.57,3.52-.85,6.26-.85,8.25,0,1.77.27,3.13.8,4.08.54.95,1.24,1.42,2.12,1.42,1.36,0,3.59-.9,6.7-2.7,2.58-1.73,4.65-3.43,6.21-5.12l1.16-1.36c.3-.4.6-.6.92-.6.27,0,.45.11.56.34.03.08.05.15.05.22,0,.21-.1.45-.31.74l-4.8,4.47c-.79.76-1.92,1.62-3.4,2.59-3.83,2.35-6.54,3.53-8.13,3.53ZM108.74,161.9c-.67,0-1.16-.33-1.47-.98-.15-.31-.22-.64-.22-.98,0-.89.69-1.94,2.08-3.13.33-.25.66-.38,1.01-.38v.27c0,.63.13,1.23.4,1.81.15.31.22.64.22.98,0,.86-.33,1.55-.98,2.06-.33.24-.67.36-1.03.36Z"/>
    <path class="cls-1" d="M128.78,187.59c-.51,0-1.01-.11-1.52-.34-1.3-.88-1.94-2.82-1.94-5.81,0-1.85.53-6.09,1.59-12.71-.09-.21-.13-.41-.13-.6,0-.63.27-1.17.8-1.63l.25-.2c.42-.33.8-.49,1.16-.49.49,0,.89.18,1.18.54.18.21.27.42.27.65l-.94,4.69c-.85,4.1-1.27,7.24-1.27,9.43,0,2.73.56,4.09,1.68,4.09.82,0,1.96-.78,3.42-2.32,2.85-3.96,5.48-8.89,7.91-14.77.7-2.9,1.88-4.36,3.55-4.36.3,0,.6.06.89.18.27.15.4.5.4,1.05s-.11,1.16-.34,1.83c-.16.83-.36,2.32-.58,4.47-.1,1.19-.16,2.11-.16,2.75,0,4.77,1.59,7.15,4.76,7.15h.22c1.47,0,3.44-.92,5.9-2.77,1.92-1.5,3.6-3.18,5.05-5.03.21-.25.42-.38.65-.38.02,0,.09,0,.23.01.14,0,.26.12.35.32.03.06.05.13.05.2,0,.19-.07.38-.22.56l-.63.76c-1.25,1.5-2.77,2.93-4.56,4.29l-.83.65c-2.73,2.22-5.29,3.33-7.69,3.33-.79,0-1.59-.19-2.41-.58-1.98-1.18-3.22-3.08-3.71-5.7-.19-1.31-.29-2.75-.29-4.31,0-.49.02-1.07.05-1.74l.02-.34c0-.15-.02-.22-.07-.22-.1,0-.4.66-.89,1.97-.55,1.54-2.34,4.72-5.36,9.56-2.44,3.89-4.72,5.83-6.84,5.83Z"/>
    <path class="cls-1" d="M198.68,211.48h-.2c-.69,0-1.29-.27-1.81-.8-.88-1.52-1.52-2.96-1.92-4.32-.4-1.36-.83-2.85-1.27-4.46-.22-1.16-.48-2.29-.76-3.4-.6-3.05-1.04-5.68-1.32-7.87-.28-2.04-.54-4.99-.76-8.85-.19-3.41-.29-6.52-.29-9.32,0-3.87.28-9.47.83-16.78v-.16c0-.13-.02-.2-.05-.2s-.09.07-.18.2c-4.75,8.4-9.66,15.22-14.73,20.47-2.98,3.08-6.29,5.22-9.92,6.41-.54.16-1.07.25-1.59.25-.36,0-.83-.07-1.43-.2-.6-.13-1.18-.53-1.77-1.18-.77-.97-1.16-2.14-1.16-3.53,0-.6.07-1.24.22-1.92.66-2.67,2.23-5.24,4.74-7.71,1.12-1.12,2.29-2.08,3.51-2.88,1.95-1.27,3.96-1.9,6.01-1.9,2.29,0,3.96.85,5.01,2.55.25.4.38.8.38,1.21,0,.36-.1.71-.31,1.05-.36.48-.79.72-1.3.72-.03,0-.19,0-.47-.01-.28,0-.66-.23-1.14-.66-.27-.27-.5-.59-.69-.96-.36-.61-.69-.96-.98-1.05-.18-.02-.37-.02-.56-.02-.49,0-1.04.06-1.63.18-1.74.46-3.69,1.72-5.83,3.78-2.09,2.1-3.42,4.22-4,6.37-.1.48-.16.89-.16,1.25,0,.79.17,1.36.51,1.72.58.7,1.31,1.05,2.19,1.05.37,0,.77-.06,1.18-.18,2.35-.76,4.38-1.79,6.09-3.11,1.71-1.31,3.3-2.9,4.77-4.77,1.47-1.87,3.05-4.03,4.71-6.49l1.61-2.3c1.37-1.97,2.65-4.08,3.83-6.33,1.18-2.26,2.38-4.66,3.59-7.21.6-6.11,1.45-12.13,2.57-18.05.79-3.98,1.43-6.9,1.93-8.76.5-1.86,1.06-3.6,1.69-5.23.64-1.77,1.21-3.11,1.72-4,.77-1.31,1.49-1.97,2.14-1.97.12,0,.34.07.65.21.31.14.56.91.74,2.29.16,1.56.25,3.04.25,4.42,0,1-.07,2.26-.21,3.78-.14,1.52-.58,3.76-1.33,6.73-.83,3.4-1.77,6.36-2.8,8.91-1.04,2.54-2.2,5.13-3.5,7.76l-.72,1.5-.42,4.07c-1.06,9.44-1.59,16.82-1.59,22.12,0,2.44.07,4.98.22,7.6.19,3.63.39,6.44.59,8.41.2,1.97.5,3.98.91,6.02l.38,2.03c.88,3.92,2.03,6.7,3.44,8.36l1.45,1.68c.48.67.72,1.24.72,1.7,0,.31-.1.68-.3,1.09s-.7.66-1.49.72ZM195.57,142.43s.13-.18.29-.49c.98-1.95,1.86-4.09,2.64-6.41,2.28-6.9,3.42-12.45,3.42-16.67,0-1.15-.12-1.72-.36-1.72-.12,0-.27.12-.45.36-.28.57-.5,1.07-.65,1.52-.6,1.54-1.13,3.2-1.61,4.98-1.07,4.04-2.09,9.34-3.06,15.91-.09.69-.18,1.31-.27,1.88-.03.22-.05.39-.05.49s.02.16.05.16h.04Z"/>
    <path class="cls-1" d="M227.71,183.88c-2.13-.1-3.68-1.24-4.65-3.4-.52-1.42-.78-3.01-.78-4.78,0-.13.01-.73.03-1.78.02-1.05.08-1.88.18-2.5.1-.62.24-1.21.41-1.78.15-.49.22-.8.22-.92,0-.04-.02-.07-.04-.07s-.09.07-.18.2c-.31.54-.81,1.27-1.5,2.21-.31.42-.72.98-1.23,1.7-4.2,6.06-8.09,9.09-11.66,9.09-1.18,0-2.26-.31-3.24-.94-.98-.63-1.65-1.52-2.01-2.68-.13-.45-.2-.92-.2-1.41,0-.79.22-1.77.66-2.95.44-1.18,1.46-2.59,3.05-4.25,1.33-1.34,2.81-2.41,4.47-3.22,2.68-1.3,5.13-1.94,7.35-1.94,1.47,0,2.6.31,3.37.94.22.25.4.62.51,1.1,0-.09.32-.6.96-1.54.3-.42.5-.65.6-.69.25-.3.62-.45,1.12-.45.22.02.45.04.67.09.42.1.63.56.63,1.36s-.23,2.47-.69,4.94c-.37,1.79-.56,3.84-.56,6.17,0,.72.05,1.35.16,1.9.46,2.59,1.62,3.89,3.46,3.89,2.37,0,5.14-1.58,8.31-4.74,1.52-1.76,2.61-3.13,3.26-4.11.18-.19.39-.29.65-.29.46,0,.69.16.69.47,0,.34-.19.7-.56,1.07-3.4,4.37-6.9,7.28-10.5,8.74-.91.33-1.9.51-2.97.56ZM209.09,180.04c.98-.06,1.9-.32,2.74-.78.84-.46,1.7-1.06,2.56-1.79,2.53-2.16,4.83-5.04,6.88-8.65l.45-.74c-.49.15-.89.22-1.21.22-.06,0-.18-.01-.36-.03-.18-.02-.35-.11-.53-.27-.17-.16-.32-.35-.46-.59-.13-.24-.32-.45-.57-.65s-.61-.29-1.11-.29h-.11c-2.37.54-4.98,2.23-7.82,5.07-1.97,1.97-2.95,3.88-2.95,5.74,0,.89.26,1.61.78,2.14.4.4.97.6,1.7.6Z"/>
    <path class="cls-1" d="M278,211.48h-.2c-.69,0-1.29-.27-1.81-.8-.88-1.52-1.52-2.96-1.92-4.32-.4-1.36-.83-2.85-1.27-4.46-.22-1.16-.48-2.29-.76-3.4-.6-3.05-1.04-5.68-1.32-7.87-.28-2.04-.54-4.99-.76-8.85-.19-3.41-.29-6.52-.29-9.32,0-3.87.28-9.47.83-16.78v-.16c0-.13-.02-.2-.05-.2s-.09.07-.18.2c-4.75,8.4-9.66,15.22-14.73,20.47-2.98,3.08-6.29,5.22-9.92,6.41-.54.16-1.07.25-1.59.25-.36,0-.83-.07-1.43-.2-.6-.13-1.18-.53-1.77-1.18-.77-.97-1.16-2.14-1.16-3.53,0-.6.07-1.24.22-1.92.66-2.67,2.23-5.24,4.74-7.71,1.12-1.12,2.29-2.08,3.51-2.88,1.95-1.27,3.96-1.9,6.01-1.9,2.29,0,3.96.85,5.01,2.55.25.4.38.8.38,1.21,0,.36-.1.71-.31,1.05-.36.48-.79.72-1.3.72-.03,0-.19,0-.47-.01-.28,0-.66-.23-1.14-.66-.27-.27-.5-.59-.69-.96-.36-.61-.69-.96-.98-1.05-.18-.02-.37-.02-.56-.02-.49,0-1.04.06-1.63.18-1.74.46-3.69,1.72-5.83,3.78-2.09,2.1-3.42,4.22-4,6.37-.1.48-.16.89-.16,1.25,0,.79.17,1.36.51,1.72.58.7,1.31,1.05,2.19,1.05.37,0,.77-.06,1.18-.18,2.35-.76,4.38-1.79,6.09-3.11,1.71-1.31,3.3-2.9,4.77-4.77,1.47-1.87,3.05-4.03,4.71-6.49l1.61-2.3c1.37-1.97,2.65-4.08,3.83-6.33,1.18-2.26,2.38-4.66,3.59-7.21.6-6.11,1.45-12.13,2.57-18.05.79-3.98,1.43-6.9,1.93-8.76.5-1.86,1.06-3.6,1.69-5.23.64-1.77,1.21-3.11,1.72-4,.77-1.31,1.49-1.97,2.14-1.97.12,0,.34.07.65.21.31.14.56.91.74,2.29.16,1.56.25,3.04.25,4.42,0,1-.07,2.26-.21,3.78-.14,1.52-.58,3.76-1.33,6.73-.83,3.4-1.77,6.36-2.8,8.91-1.04,2.54-2.2,5.13-3.5,7.76l-.72,1.5-.42,4.07c-1.06,9.44-1.59,16.82-1.59,22.12,0,2.44.07,4.98.22,7.6.19,3.63.39,6.44.59,8.41.2,1.97.5,3.98.91,6.02l.38,2.03c.88,3.92,2.03,6.7,3.44,8.36l1.45,1.68c.48.67.72,1.24.72,1.7,0,.31-.1.68-.3,1.09s-.7.66-1.49.72ZM274.9,142.43s.13-.18.29-.49c.98-1.95,1.86-4.09,2.64-6.41,2.28-6.9,3.42-12.45,3.42-16.67,0-1.15-.12-1.72-.36-1.72-.12,0-.27.12-.45.36-.28.57-.5,1.07-.65,1.52-.6,1.54-1.13,3.2-1.61,4.98-1.07,4.04-2.09,9.34-3.06,15.91-.09.69-.18,1.31-.27,1.88-.03.22-.05.39-.05.49s.02.16.05.16h.04Z"/>
  </g>
  <polygon class="cls-1" points="45.58 116.08 51.34 119.7 62.83 114.12 56.18 109.97 48.62 110.91 45.58 116.08"/>
</svg>